<svg width="97" height="97" viewBox="0 0 97 97" fill="none" xmlns="http://www.w3.org/2000/svg">
<path d="M69.6616 5H26.5539C14.65 5 5 14.65 5 26.5539V69.6616C5 81.5655 14.65 91.2155 26.5539 91.2155H69.6616C81.5655 91.2155 91.2155 81.5655 91.2155 69.6616V26.5539C91.2155 14.65 81.5655 5 69.6616 5Z" stroke="white" stroke-width="10" stroke-linecap="round" stroke-linejoin="round"/>
<path d="M65.3647 45.3782C65.8967 48.9659 65.284 52.6299 63.6135 55.8492C61.9431 59.0685 59.3001 61.6791 56.0605 63.3097C52.8209 64.9403 49.1496 65.5078 45.5688 64.9316C41.988 64.3554 38.68 62.6648 36.1155 60.1002C33.5509 57.5357 31.8603 54.2277 31.2841 50.6469C30.7079 47.0661 31.2754 43.3948 32.906 40.1552C34.5366 36.9156 37.1472 34.2726 40.3665 32.6021C43.5858 30.9317 47.2498 30.3189 50.8374 30.8509C54.497 31.3936 57.8849 33.0988 60.5009 35.7148C63.1168 38.3308 64.8221 41.7187 65.3647 45.3782Z" stroke="white" stroke-width="10" stroke-linecap="round" stroke-linejoin="round"/>
</svg>
