<svg width="1920" height="1184" viewBox="0 0 1920 1184" fill="none" xmlns="http://www.w3.org/2000/svg">
<rect width="1920" height="1184" fill="#216260"/>
<g clip-path="url(#clip0)">
<path opacity="0.2" fill-rule="evenodd" clip-rule="evenodd" d="M1910.31 989.56C1921.59 1053.09 1647.9 1094.53 1412.33 1065.61C1176.75 1036.69 1068.68 923.755 1181.09 863.577C1293.51 803.398 1899.02 926.026 1910.31 989.56Z" fill="#DDE3E9"/>
<g opacity="0.2">
<g opacity="0.5">
<path opacity="0.5" fill-rule="evenodd" clip-rule="evenodd" d="M1054.46 594.951C1052.62 596.873 1053.33 603.702 1053.29 606.23C1053.23 610.164 1053.47 614.064 1053.78 617.984C1053.99 620.609 1055.18 645.659 1058.48 643.735C1060.35 642.651 1059.18 635.405 1059.18 633.113C1059.17 628.017 1058.97 622.934 1058.64 617.85C1058.34 613.13 1058.15 608.464 1058.32 603.735C1058.37 602.581 1059.4 589.771 1054.46 594.951Z" fill="white"/>
<path opacity="0.5" fill-rule="evenodd" clip-rule="evenodd" d="M1134.57 591.863C1118.76 591.995 1102.97 592.81 1087.17 593.31C1079.57 593.551 1071.97 593.856 1064.38 594.297C1061.79 594.447 1056.24 593.581 1054.09 595.023C1049.3 598.225 1057.02 598.974 1059.08 598.896C1090.34 597.71 1121.61 596.148 1152.9 596.074C1168.25 596.038 1183.59 596.495 1198.94 596.393C1204.8 596.354 1211.3 593.709 1212.78 600.854C1214.46 608.917 1212.53 617.895 1212.01 625.997C1211.66 631.406 1211.79 636.702 1212.02 642.106C1212.17 645.568 1211.78 649.469 1212.36 652.867C1212.93 656.138 1215.18 658.1 1217.24 654.436C1218.47 652.246 1217.85 646.839 1217.94 644.302C1218.05 640.885 1217.94 637.47 1217.94 634.052C1217.94 625.711 1219.07 617.403 1218.92 609.064C1218.82 603.686 1218.55 593.937 1212.07 592.645C1204.93 591.222 1196.15 592.653 1188.85 592.566C1170.75 592.35 1152.68 591.715 1134.57 591.863Z" fill="white"/>
<path opacity="0.5" fill-rule="evenodd" clip-rule="evenodd" d="M1091.02 644.034C1085.06 644.034 1079.1 644.072 1073.14 644.175C1068.03 644.263 1060 643.149 1055.24 645.062C1051.99 646.371 1051.12 650.175 1055.24 651.188C1059.74 652.293 1066.51 650.486 1071.21 650.4C1094.8 649.964 1118.6 649.396 1142.15 650.957C1164.22 652.418 1186.71 653.836 1208.81 652.293C1210.67 652.163 1220.15 651.768 1215.82 648.049C1213.3 645.879 1203.07 647.306 1199.79 647.202C1188.22 646.837 1176.63 646.756 1165.06 646.297C1153.65 645.844 1142.28 644.501 1130.86 644.169C1117.59 643.782 1104.29 644.034 1091.02 644.034Z" fill="white"/>
<path opacity="0.5" fill-rule="evenodd" clip-rule="evenodd" d="M1085.06 608.572C1094.35 608.996 1103.54 623.089 1094.14 629.901C1085.32 636.292 1068.8 629.288 1073.7 616.895C1073 618.686 1074.59 614.948 1074.61 614.923C1075.55 613.774 1077.22 612.502 1078.37 611.596C1079.68 610.559 1081.05 609.418 1082.64 608.898C1083.68 608.558 1083.52 609.841 1085.06 608.572ZM1080.54 603.489C1076.19 605.264 1074.2 607.268 1071.22 610.893C1069.15 613.401 1066.51 614.721 1066.54 618.111C1066.54 618.862 1067.46 619.686 1067.62 620.409C1067.84 621.408 1067.59 622.687 1067.76 623.748C1069.56 634.699 1082.05 638.39 1091.19 636.323C1099.15 634.522 1105.11 626.525 1103.26 617.83C1101.41 609.077 1089 600.025 1080.54 603.489Z" fill="white"/>
<path opacity="0.5" fill-rule="evenodd" clip-rule="evenodd" d="M1076.66 618.775C1076.66 622.714 1082.61 622.714 1082.61 618.775C1082.61 614.881 1076.66 614.713 1076.66 618.775Z" fill="white"/>
<path opacity="0.5" fill-rule="evenodd" clip-rule="evenodd" d="M1084.1 617.978C1084.1 621.108 1088.83 621.108 1088.83 617.978C1088.83 614.883 1084.1 614.751 1084.1 617.978Z" fill="white"/>
<path opacity="0.5" fill-rule="evenodd" clip-rule="evenodd" d="M1085.57 624.433C1084.05 625.042 1082.13 623.78 1080.89 624.611C1078.69 626.085 1080.9 627.418 1082.08 628.01C1087.39 630.676 1088.33 623.325 1085.57 624.433Z" fill="white"/>
<path opacity="0.5" fill-rule="evenodd" clip-rule="evenodd" d="M1166.66 615.703C1166.5 615.773 1165.94 616.023 1166.66 615.703V615.703ZM1143.54 612.167C1139.56 613.106 1136.21 616.988 1131.89 616.469C1128.58 616.071 1126.34 612.73 1123.07 612.245C1118.89 611.623 1107.52 621.596 1113.5 623.307C1116.99 624.306 1118.93 617.636 1122.01 617.282C1124.45 617.002 1127.76 620.13 1130.29 620.575C1135 621.406 1138.24 618.689 1142.37 616.938C1146.87 615.035 1149.43 616.749 1153.34 618.864C1156.43 620.534 1159.33 621.621 1162.86 620.932C1166.18 620.286 1170.34 616.72 1173.68 617.086C1176.95 617.444 1179.28 621.012 1182.64 621.343C1184.02 621.479 1186.09 621.973 1185.85 619.736C1185.67 617.945 1183.76 618.249 1182.56 617.598C1179.49 615.923 1176.61 612.957 1172.91 613.21C1170.12 613.401 1167.58 615.452 1165 616.433C1156.58 619.646 1151.85 610.216 1143.54 612.167Z" fill="white"/>
<path opacity="0.5" fill-rule="evenodd" clip-rule="evenodd" d="M1150.57 668.904C1134.33 669.06 1118.03 669.312 1101.83 670.674C1097.99 670.997 1058.78 674.87 1058.86 675.149C1059 675.666 1064.04 676.454 1064.01 676.576C1063.67 675.694 1062.89 675.329 1061.68 675.481C1098.86 675.481 1135.93 671.998 1173.17 672.624C1182.53 672.781 1191.92 672.716 1201.27 673.024C1203.6 673.101 1209.39 674.852 1211.22 673.749C1216.03 670.855 1207.29 670.521 1205.84 670.399C1187.52 668.866 1168.95 668.712 1150.57 668.904Z" fill="white"/>
<path opacity="0.5" fill-rule="evenodd" clip-rule="evenodd" d="M1054.04 677.16C1051.62 679.708 1053.85 688.871 1053.95 692.315C1054.09 697.294 1053.97 702.309 1054.39 707.275C1054.87 712.948 1055.61 718.992 1057.03 724.496C1057.81 727.528 1060.56 732.347 1061.65 726.837C1062.43 722.902 1061.25 717.682 1060.84 713.673C1060.29 708.31 1060.15 703.018 1060.13 697.629C1060.12 692.933 1060.03 688.218 1059.66 683.537C1059.47 681.107 1058.3 672.73 1054.04 677.16Z" fill="white"/>
<path opacity="0.5" fill-rule="evenodd" clip-rule="evenodd" d="M1115.14 723.827C1103.61 724.034 1092.06 724.318 1080.55 725.071C1075.84 725.381 1071.12 725.841 1066.42 726.362C1065.47 726.468 1054.85 726.919 1059.59 731.017C1061.74 732.867 1070.54 730.309 1073.45 730.043C1078.34 729.594 1083.23 729.303 1088.14 729.085C1099.5 728.581 1110.9 728.135 1122.28 728.341C1143.06 728.718 1163.7 728.887 1184.48 728.402C1187.44 728.333 1210.57 728.98 1211.36 725.766C1211.99 723.175 1203.72 724.364 1202.21 724.411C1196.68 724.584 1191.14 724.543 1185.61 724.514C1162.16 724.388 1138.57 723.412 1115.14 723.827Z" fill="white"/>
<path opacity="0.5" fill-rule="evenodd" clip-rule="evenodd" d="M1207.44 672.863C1207.81 683.6 1209.55 694.325 1210.11 705.095C1210.37 710.018 1210.67 714.936 1210.9 719.861C1210.97 721.45 1210.36 725.278 1212.16 726.192C1214.62 727.445 1214.95 724.919 1215.41 723.211C1216.75 718.277 1215.84 711.867 1215.72 706.798C1215.61 701.89 1215.6 696.973 1215.25 692.074C1214.9 687.068 1213.93 682.158 1213.49 677.17C1213.3 675.06 1213.96 671.55 1211.82 670.241C1209.97 669.109 1207.36 670.535 1207.44 672.863Z" fill="white"/>
<path opacity="0.5" fill-rule="evenodd" clip-rule="evenodd" d="M1094.15 690.724C1094.19 690.759 1094.23 690.795 1094.28 690.831C1094.23 690.795 1094.19 690.76 1094.15 690.724ZM1084.35 687.543C1088 688.634 1091 688.227 1094.49 691.009C1097.38 693.316 1100.35 696.691 1101.31 700.42C1103.53 709.038 1096.01 713.76 1088.97 713.853C1081.75 713.948 1071.07 712.197 1071.44 702.52C1071.73 695.086 1076.91 687.831 1084.35 687.543ZM1084.61 682.673C1075.14 683.166 1067.5 694.295 1067.58 703.663C1067.68 715.016 1079.97 717.941 1088.71 718.02C1098.56 718.108 1108.39 710.987 1105.75 699.388C1103.64 690.095 1093.72 682.178 1084.61 682.673Z" fill="white"/>
<path opacity="0.5" fill-rule="evenodd" clip-rule="evenodd" d="M1075.08 697.916C1075.08 701.082 1079.86 701.082 1079.86 697.916C1079.86 694.787 1075.08 694.652 1075.08 697.916Z" fill="white"/>
<path opacity="0.5" fill-rule="evenodd" clip-rule="evenodd" d="M1085.11 696.527C1085.11 699.718 1089.93 699.718 1089.93 696.527C1089.93 693.373 1085.11 693.237 1085.11 696.527Z" fill="white"/>
<path opacity="0.5" fill-rule="evenodd" clip-rule="evenodd" d="M1079.58 703.748C1076.47 706.999 1087.4 712.697 1089.98 708.175C1092.1 704.461 1087.48 705.693 1085.85 705.492C1084.07 705.273 1081.03 702.236 1079.58 703.748Z" fill="white"/>
<path opacity="0.5" fill-rule="evenodd" clip-rule="evenodd" d="M1166.98 696.593C1166.68 696.724 1166.68 696.724 1166.98 696.593V696.593ZM1125.93 691.301C1122.78 691.919 1112.44 695.569 1112.3 699.48C1112.04 706.589 1122.17 699.308 1124.37 698.372C1130.34 695.833 1133.48 701.014 1139.48 701.287C1144.7 701.525 1149.49 696.858 1154.4 697.41C1159.54 697.988 1162.02 703.714 1167.96 700.674C1171.1 699.066 1171.02 696.586 1167.49 696.353C1165.36 696.211 1163.89 697.133 1161.67 696.173C1158.2 694.674 1156.8 692.232 1152.64 692.619C1149.5 692.912 1146.66 694.763 1143.6 695.479C1136.58 697.119 1132.69 689.975 1125.93 691.301Z" fill="white"/>
<path opacity="0.5" fill-rule="evenodd" clip-rule="evenodd" d="M1191.18 699.679C1190.97 699.775 1190.97 699.775 1191.18 699.679V699.679ZM1191.98 696.719C1192.01 696.735 1192.25 697.08 1191.98 696.719V696.719ZM1188.37 694.459C1188.23 694.569 1188.23 694.569 1188.37 694.459V694.459ZM1188.44 694.432C1189.15 694.87 1194.78 698.899 1190.69 699.848C1188.61 700.329 1186.89 695.958 1188.44 694.432ZM1186.58 689.968C1177.56 694.272 1187.27 709.671 1194.35 703.414C1197.32 700.781 1197.72 695.46 1194.82 692.717C1193.08 691.073 1188.94 688.842 1186.58 689.968Z" fill="white"/>
<path opacity="0.5" fill-rule="evenodd" clip-rule="evenodd" d="M1101.9 750.651C1090.65 750.655 1079.29 750.408 1068.05 751.106C1066.16 751.223 1058.95 750.847 1057.98 752.916C1056.19 756.7 1063.61 754.821 1064.69 754.708C1087.07 752.364 1110.45 753.713 1132.9 754.381C1151.27 754.927 1169.54 755.266 1187.88 756.256C1192.7 756.517 1197.52 756.804 1202.34 757.108C1203.91 757.208 1207.86 758.296 1208.19 755.672C1208.5 753.243 1203.57 753.792 1202.34 753.724C1192.54 753.184 1182.75 752.62 1172.96 752.043C1149.39 750.653 1125.51 750.647 1101.9 750.651Z" fill="white"/>
<path opacity="0.5" fill-rule="evenodd" clip-rule="evenodd" d="M1057.62 754.86C1055.51 757.046 1056.5 765.396 1056.44 768.156C1056.34 772.982 1056.12 777.805 1056.02 782.631C1055.92 787.674 1056.06 792.741 1056.35 797.777C1056.47 799.891 1058.13 810.111 1060.74 804.263C1061.9 801.649 1060.71 794.37 1060.73 791.409C1060.76 786.019 1061.04 780.652 1061.29 775.27C1061.51 770.644 1061.52 766.013 1061.71 761.385C1061.78 759.91 1061.94 750.319 1057.62 754.86Z" fill="white"/>
<path opacity="0.5" fill-rule="evenodd" clip-rule="evenodd" d="M1210.09 797.973C1199.13 799.148 1188 798.593 1177 799.46C1167.53 800.208 1158.06 800.514 1148.56 800.724C1127.04 801.199 1105.49 801.663 1084.04 803.538C1079.15 803.966 1074.27 804.419 1069.37 804.648C1066.91 804.763 1056.63 803.596 1055.86 806.3C1054.56 810.905 1065.56 809.082 1067.93 809.01C1073.15 808.852 1078.34 808.458 1083.55 808.043C1105.42 806.3 1127.38 805.778 1149.3 805.053C1161.22 804.66 1173.06 803.747 1184.95 802.917C1190.88 802.503 1196.83 802.49 1202.76 802.089C1204.31 801.984 1209.8 802.191 1210.91 800.885C1211.68 799.988 1211.87 797.799 1210.09 797.973Z" fill="white"/>
<path opacity="0.5" fill-rule="evenodd" clip-rule="evenodd" d="M1206.37 755.643C1206.75 766.634 1207.34 777.615 1207.7 788.606C1207.8 791.911 1206.85 797.835 1208.61 800.75C1211.44 805.436 1213.64 800.476 1214.16 797.556C1215.8 788.339 1214.04 778.156 1213.58 768.882C1213.41 765.344 1214.46 757.469 1212.82 754.303C1211.27 751.287 1206.23 751.589 1206.37 755.643Z" fill="white"/>
<path opacity="0.5" fill-rule="evenodd" clip-rule="evenodd" d="M1187.98 771.297C1192.18 772.486 1192.79 782.032 1188.06 782.738C1181.01 783.789 1184.09 773.265 1187.98 771.297ZM1186.81 767.5C1185.52 767.458 1182.57 767.089 1181.78 768.179C1181.12 769.092 1181.79 771.016 1181.71 771.885C1181.43 774.991 1179.02 776.785 1180.1 780.452C1180.83 782.94 1182.79 785.279 1185.18 786.143C1197.8 790.705 1197.64 765.206 1186.81 767.5Z" fill="white"/>
<path opacity="0.5" fill-rule="evenodd" clip-rule="evenodd" d="M1072.93 769.213C1072.9 769.255 1072.86 769.297 1072.83 769.339C1072.86 769.297 1072.9 769.255 1072.93 769.213ZM1082.83 763.698C1082.78 763.257 1082.74 762.815 1082.69 762.373C1089.52 765.751 1094.97 772.034 1092.7 780.467C1090.96 786.9 1084.7 789.182 1078.87 787.594C1072.41 785.835 1069.33 780.268 1071.07 773.431C1071.87 770.277 1074.34 766.038 1077.53 765.024C1079.01 764.552 1082.29 765.755 1082.83 763.698ZM1078.84 761.028C1077.11 761.15 1075.42 761.904 1074.01 762.935C1075.33 761.765 1077.09 761.069 1078.84 761.028ZM1078.88 756.872C1074.61 757.009 1071.81 759.716 1069.28 762.966C1068.48 763.987 1065.79 766.691 1066.12 768.066C1066.39 769.153 1067.08 770.742 1068.53 769.531C1060.93 785.376 1080.56 798.891 1092.54 787.872C1103.73 777.589 1092.63 756.39 1078.88 756.872Z" fill="white"/>
<path opacity="0.5" fill-rule="evenodd" clip-rule="evenodd" d="M1075 771.592C1075 773.702 1078.13 773.702 1078.13 771.592C1078.13 769.482 1075 769.482 1075 771.592Z" fill="white"/>
<path opacity="0.5" fill-rule="evenodd" clip-rule="evenodd" d="M1080.34 771.952C1080.34 774.096 1083.53 774.096 1083.53 771.952C1083.53 769.807 1080.34 769.807 1080.34 771.952Z" fill="white"/>
<path opacity="0.5" fill-rule="evenodd" clip-rule="evenodd" d="M1082.77 779.483C1081.28 779.609 1075.83 779.08 1074.88 780.444C1073.28 782.723 1075.83 782.802 1077.08 783.049C1078.21 783.27 1083.12 783.145 1083.81 782.097C1084.42 781.171 1084.27 779.349 1082.77 779.483Z" fill="white"/>
<path opacity="0.5" fill-rule="evenodd" clip-rule="evenodd" d="M1148.41 773.572C1148.15 773.683 1148.15 773.683 1148.41 773.572V773.572ZM1127.82 771.997C1124.47 772.255 1121.63 774.273 1118.42 775.078C1115 775.938 1113.52 774.357 1110.41 773.322C1107.17 772.245 1104.87 772.671 1102.26 774.984C1100.79 776.295 1097.56 779.311 1098.48 781.64C1100.59 786.969 1105.36 778.298 1107.61 777.895C1111.11 777.266 1114.23 780.472 1118.27 779.555C1121.93 778.724 1125.18 776.094 1129.01 776.065C1132.21 776.042 1135.22 777.872 1138.38 778.315C1143.2 778.992 1146.36 777.201 1150.82 775.872C1154.68 774.719 1157.39 776.24 1161.03 777.518C1162.69 778.102 1168.23 780.226 1167.21 776.375C1166.92 775.287 1159.62 773.341 1158.49 772.967C1154.49 771.647 1151.96 772.161 1148.16 773.679C1144.99 774.945 1142.32 775.561 1138.92 774.865C1135.17 774.097 1131.76 771.684 1127.82 771.997Z" fill="white"/>
</g>
<g opacity="0.5">
<path opacity="0.5" fill-rule="evenodd" clip-rule="evenodd" d="M1325.39 458.324C1325.93 446.142 1326.68 433.976 1327.07 421.786C1327.26 415.746 1327.42 409.704 1327.56 403.663C1327.6 402.318 1327.63 400.973 1327.66 399.627C1327.75 395.057 1327.24 394.683 1331.63 394.277C1351.24 392.466 1370.93 391.866 1390.57 390.227C1414.25 388.251 1438.05 386.886 1461.8 386.275C1472.35 386.002 1482.95 385.438 1493.51 385.782C1495.85 385.858 1500.44 385.221 1501.36 387.123C1501.75 387.945 1500.92 390.772 1500.81 391.72C1500.48 394.682 1500.17 397.654 1499.98 400.631C1498.86 418.186 1499.53 436.184 1502.78 453.473C1495.16 448.977 1485.53 445.109 1476.64 445.876C1467.59 446.659 1460.81 452.134 1453.56 457.173C1449.46 460.023 1448.08 460.772 1443.99 458.011C1440.46 455.632 1437.13 452.911 1433.8 450.241C1428.67 446.12 1423.83 441.651 1418.85 437.331C1409.7 429.388 1397.09 418.081 1384.45 421.41C1375.42 423.788 1367.08 428.981 1359.24 434.064C1347.59 441.614 1337.05 450.86 1325.39 458.324ZM1482.35 380.372C1437.35 380.372 1392.69 384.935 1347.83 387.404C1343.14 387.662 1338.47 388.041 1333.8 388.513C1330.69 388.827 1323.08 387.507 1321.04 390.289C1319.68 392.145 1320.85 392.424 1321.04 394.187C1321.28 396.41 1321.14 399.043 1321.07 401.395C1320.92 407.064 1320.77 412.732 1320.64 418.4C1320.18 439.825 1319.89 461.247 1320.72 482.666C1320.9 487.337 1322.53 493.805 1321.64 498.344C1320.99 501.631 1318.84 503.631 1323.81 504.238C1328.69 504.836 1334.67 503.315 1339.56 502.828C1344.49 502.338 1349.41 501.807 1354.33 501.382C1375.76 499.535 1397.39 499.814 1418.86 499.2C1440.54 498.581 1462.22 498.541 1483.9 498.529C1492.97 498.524 1503.33 499.057 1512.18 496.445C1515.3 495.526 1515.8 495.073 1515.03 491.841C1514.89 491.227 1513.95 491.001 1513.67 489.892C1513.29 488.384 1513.49 486.55 1513.4 484.979C1513.11 479.85 1513.01 474.711 1512.78 469.579C1512.4 461.003 1510.98 452.68 1509.94 444.191C1508.73 434.387 1508.79 424.432 1508.77 414.564C1508.76 409.091 1508.89 403.635 1509.31 398.177C1509.58 394.676 1511.23 389.449 1510.39 386.184C1509.98 384.558 1509.29 383.269 1507.68 382.57C1506.65 382.126 1505.79 382.473 1504.78 382.361C1503.58 382.228 1502.83 382.051 1501.39 381.71C1495.22 380.248 1488.63 380.372 1482.35 380.372Z" fill="white"/>
<path opacity="0.5" fill-rule="evenodd" clip-rule="evenodd" d="M1457.44 403.68C1457.44 407.091 1456.93 412.126 1458.44 415.338C1460.34 419.414 1462.73 418.14 1463.36 414.31C1463.72 412.116 1463.71 405.623 1463.04 403.68C1462.09 400.929 1457.44 399.055 1457.44 403.68Z" fill="white"/>
<path opacity="0.5" fill-rule="evenodd" clip-rule="evenodd" d="M1462.92 404.997C1459.85 405.11 1450.94 404.341 1448.87 406.916C1445.31 411.334 1451.5 412.116 1454.16 411.869C1457.23 411.583 1466.73 412.281 1468.78 409.702C1472.23 405.389 1465.32 404.905 1462.92 404.997Z" fill="white"/>
<path opacity="0.5" fill-rule="evenodd" clip-rule="evenodd" d="M1344.11 518.975C1357.57 521.421 1353.39 542.89 1340.65 537.917C1336.21 536.185 1329.68 531.178 1332.13 525.279C1333.96 520.871 1339.93 518.555 1344.11 518.975ZM1338.54 512.299C1329.79 513.841 1323.8 523.751 1326.81 532.395C1329.7 540.735 1340.68 546.842 1348.78 543.845C1356.51 540.984 1360.37 530.222 1357.76 522.349C1355.04 514.123 1346.17 510.956 1338.54 512.299Z" fill="white"/>
<path opacity="0.5" fill-rule="evenodd" clip-rule="evenodd" d="M1420.41 521.486C1417.05 521.777 1414.16 524.232 1410.79 524.666C1407.63 525.072 1405.02 523.944 1402.07 523.042C1398.5 521.952 1395.23 521.472 1391.58 522.441C1388.8 523.181 1386.05 525.165 1383.15 525.404C1377.46 525.875 1370.84 519.076 1366.39 526.766C1364.26 530.452 1367.36 532.827 1370.54 531.107C1373.87 529.315 1372.24 528.674 1376.36 529.733C1379.8 530.615 1382.58 531.094 1386.03 529.857C1389.15 528.737 1391.89 526.687 1395.28 526.457C1398.6 526.232 1401.49 527.815 1404.67 528.498C1408.57 529.338 1412.03 528.702 1415.73 527.421C1419.25 526.203 1420.65 525.537 1424.2 526.624C1426.45 527.312 1431.36 529.498 1433.55 527.736C1437.34 524.691 1432.27 524.245 1430.28 523.812C1427.06 523.116 1423.74 521.201 1420.41 521.486Z" fill="white"/>
<path opacity="0.5" fill-rule="evenodd" clip-rule="evenodd" d="M1497.09 519.44C1497.11 519.461 1497.14 519.483 1497.17 519.504C1497.14 519.483 1497.11 519.461 1497.09 519.44ZM1493.8 518.72C1498.69 519.049 1503.98 528.373 1497.5 528.704C1492.93 528.937 1487.83 520.773 1493.8 518.72ZM1493.11 511.091C1477.64 515.61 1484.71 538.427 1499.63 535.791C1506.41 534.594 1508.71 526.379 1506.47 520.298C1505.51 517.687 1503.63 515.484 1501.39 513.981C1499.73 512.873 1495 510.54 1493.11 511.091Z" fill="white"/>
<path opacity="0.5" fill-rule="evenodd" clip-rule="evenodd" d="M1326.77 656.919C1326.32 654.796 1326.56 651.55 1326.54 650.8C1326.42 647.283 1326.38 643.764 1326.25 640.247C1325.94 631.868 1325.73 623.44 1325.12 615.08C1324.53 607.088 1323.04 599.338 1323 591.287C1322.97 585.842 1321.52 572.044 1326.08 568.345C1333.91 563.563 1330.81 580.437 1330.69 583.357C1330.3 592.149 1330.82 600.554 1331.67 609.291C1332.44 617.299 1331.55 625.27 1331.26 633.279C1331.1 637.53 1331.01 641.775 1330.71 646.019C1330.61 647.343 1330.76 653.307 1330.09 656.484C1331.8 656.407 1333.43 656.487 1334.33 656.458C1340.68 656.257 1347.02 656.081 1353.37 655.832C1377.78 654.872 1402.2 655.306 1426.6 654.093C1449.68 652.945 1472.85 652.702 1495.95 652.405C1497.97 652.59 1498.87 654.809 1497.58 656.514C1496.31 658.183 1490.42 657.817 1488.59 657.972C1482.08 658.519 1475.59 658.765 1469.07 658.831C1455.32 658.967 1441.63 659.583 1427.91 660.402C1403.54 661.856 1379.13 661.736 1354.74 662.773C1348.82 663.025 1342.9 663.214 1336.97 663.376C1333.85 663.462 1325.67 665.43 1324.12 661.526C1323.03 658.767 1324.55 657.497 1326.77 656.919ZM1461.79 557.614C1469.18 557.543 1476.52 557.678 1483.9 558.12C1487.17 558.317 1490.44 558.506 1493.71 558.651C1495.6 558.735 1499.92 558.086 1501.58 559.004C1508.09 562.607 1494.82 563.002 1493.21 562.973C1486.45 562.854 1479.69 562.303 1472.93 562.13C1448.05 561.49 1422.98 563.074 1398.12 564.141C1386.16 564.655 1374.21 564.728 1362.26 565.43C1355.72 565.814 1349.19 566.253 1342.66 566.614C1339.65 566.78 1336.63 566.941 1333.62 567.021C1331.76 567.07 1327.97 567.875 1326.26 567.14C1324.79 566.514 1323.61 565.64 1324.42 563.785C1325.28 561.79 1329.05 562.639 1330.64 562.607C1336.4 562.49 1342.15 562.152 1347.9 561.784C1360.95 560.948 1373.97 559.97 1387.05 559.737C1411.97 559.292 1436.86 557.856 1461.79 557.614ZM1496.08 566.5C1496.08 562.925 1500.18 562.206 1501.99 564.637C1503.73 566.963 1502.61 574.005 1502.66 576.787C1502.8 585.956 1503.62 595.073 1504.41 604.2C1505.19 613.252 1505.75 622.308 1506.35 631.375C1506.63 635.565 1509.71 652.289 1505.23 654.731C1499.52 657.846 1500.6 641.994 1500.44 639.105C1499.93 629.803 1499.28 620.488 1498.48 611.21C1497.18 596.209 1496.06 581.561 1496.08 566.5Z" fill="white"/>
<path opacity="0.5" fill-rule="evenodd" clip-rule="evenodd" d="M1420.67 609.558C1428.5 612.469 1436.28 615.51 1444.03 618.643C1448.18 620.319 1452.31 622.049 1456.44 623.749C1458.52 624.6 1467.13 626.738 1467.63 628.903C1468.33 631.96 1459.14 628.205 1457.68 627.716C1453.55 626.336 1449.47 624.79 1445.4 623.253C1436.28 619.814 1427.19 616.267 1418.03 612.933C1417.18 612.621 1416.32 612.31 1415.46 612C1405.74 616.569 1396.04 621.181 1386.37 625.866C1381.18 628.379 1376.03 630.95 1370.88 633.555C1367.07 635.487 1360.17 640.999 1355.97 640.903C1354.38 640.866 1353.31 640.51 1353.14 638.494C1352.93 635.917 1356.9 634.859 1358.5 634.02C1364 631.144 1369.53 628.34 1375.08 625.572C1386.09 620.074 1397.21 614.796 1408.37 609.623C1408.44 609.594 1408.5 609.564 1408.57 609.534C1402.38 607.343 1396.17 605.204 1389.95 603.11C1386.4 601.913 1361.47 595.478 1362.38 592.024C1363.4 588.152 1385.48 597.281 1388.87 598.413C1397.23 601.2 1405.57 604.066 1413.86 607.062C1433.76 597.709 1453.87 587.743 1474.62 580.938C1475.93 580.51 1476.75 581.92 1476.46 583.103C1476.06 584.687 1471.4 585.969 1470.11 586.572C1465 588.96 1459.86 591.29 1454.75 593.679C1443.62 598.885 1432.46 604.042 1421.32 609.252C1421.11 609.354 1420.89 609.456 1420.67 609.558Z" fill="white"/>
<path opacity="0.5" fill-rule="evenodd" clip-rule="evenodd" d="M1347.07 675.049C1352.16 675.982 1355.75 681.09 1355.19 686.439C1354.43 693.667 1347.55 696.979 1341.19 696.036C1333.97 694.966 1332.45 688.583 1335.95 682.442C1336.72 681.083 1337.61 679.456 1339.02 678.74C1339.99 678.248 1341.22 678.683 1342 678.286C1344.73 676.896 1343.09 674.679 1347.07 675.049ZM1344.75 670.327C1338.54 671.158 1327.06 678.676 1327.65 686.199C1328.15 687.071 1328.91 687.428 1329.92 687.269C1329.68 688.899 1329.75 690.511 1330.16 692.106C1330.75 694.176 1331.92 695.874 1333.5 697.222C1336.75 699.999 1341.19 700.68 1345.23 700.193C1352.78 699.285 1358.73 693.885 1359.16 685.668C1359.57 677.648 1352.88 669.253 1344.75 670.327Z" fill="white"/>
<path opacity="0.5" fill-rule="evenodd" clip-rule="evenodd" d="M1374.83 680.116C1372.04 681.661 1367.63 684.035 1366 686.969C1364.27 690.068 1366.06 693.459 1369.7 691.993C1372.59 690.829 1374.42 687.131 1377.5 685.946C1380.22 684.9 1381.32 685.433 1384.19 686.474C1387.15 687.547 1389.74 688.585 1392.94 688.321C1396.96 687.99 1400.44 685.551 1404.38 684.996C1407.69 684.528 1410.42 685.877 1413.6 686.414C1417.28 687.037 1419.69 685.578 1423.13 684.819C1425.48 684.302 1429.61 686.405 1431.32 685.618C1435.16 683.85 1431.1 681.688 1428.97 680.974C1425.38 679.771 1423.18 680.833 1419.77 681.83C1416.07 682.913 1414.47 682.099 1410.93 681.105C1403.77 679.092 1398.24 683.958 1391.46 683.073C1385.17 682.254 1381.41 676.468 1374.83 680.116Z" fill="white"/>
<path opacity="0.5" fill-rule="evenodd" clip-rule="evenodd" d="M1491.88 676.521C1498.77 683.279 1491.03 692.896 1483.44 687.494C1480.76 685.593 1480.72 682.539 1482.8 679.807C1484.7 677.308 1488.89 676.334 1491.88 676.521ZM1489.33 671.059C1482.89 672.369 1476.82 675.46 1476.24 683.233C1475.67 690.817 1483.1 694.34 1489.35 693.842C1503.38 692.725 1502.36 668.423 1489.33 671.059Z" fill="white"/>
</g>
<g opacity="0.5">
<path opacity="0.5" fill-rule="evenodd" clip-rule="evenodd" d="M1656.38 429.272C1656.37 436.219 1656.04 443.311 1657.26 450.176C1657.63 452.254 1657.92 456.234 1660.02 457.313C1662.12 458.396 1664.17 457.179 1664.69 454.922C1665.3 452.295 1663.96 448.365 1663.82 445.607C1663.64 441.84 1663.63 438.069 1663.62 434.298C1663.62 431.574 1664.48 427.193 1661.41 425.792C1659.12 424.75 1656.38 426.687 1656.38 429.272Z" fill="white"/>
<path opacity="0.5" fill-rule="evenodd" clip-rule="evenodd" d="M1761.36 418.283C1739.36 420.593 1717.04 421.074 1694.96 422.279C1684.75 422.835 1672.42 422.125 1662.8 426.259C1661.02 427.026 1654.62 431.299 1659.81 433.039C1661.43 433.581 1663.07 431.757 1664.4 431.146C1666.62 430.129 1669.18 429.814 1671.54 429.417C1691.6 426.046 1712.59 426.633 1732.86 425.058C1738.05 424.654 1743.25 424.239 1748.43 423.705C1752.14 423.324 1759.92 420.532 1763.34 421.96C1769.18 424.4 1769.04 440.258 1769.16 445.712C1769.22 448.532 1766.6 458.656 1771.8 457.63C1775.96 456.808 1774.46 446.291 1774.13 443.413C1773.28 435.872 1771.83 417.173 1761.36 418.283Z" fill="white"/>
<path opacity="0.5" fill-rule="evenodd" clip-rule="evenodd" d="M1769.47 457.264C1750.36 459.07 1730.81 457.298 1711.62 458.008C1701.56 458.381 1691.52 458.974 1681.46 459.322C1677.1 459.472 1672.75 459.479 1668.4 459.511C1666.31 459.526 1656.84 460.846 1662.7 465.165C1665.3 467.077 1673.57 465.537 1676.55 465.499C1681.02 465.444 1685.49 465.25 1689.96 465.067C1700.31 464.643 1710.66 464.056 1721.02 463.763C1730.92 463.482 1740.84 463.422 1750.74 463.142C1755.68 463.002 1760.67 462.843 1765.56 462.09C1766.66 461.92 1770.24 461.785 1771.01 460.499C1771.73 459.282 1771.22 457.088 1769.47 457.264Z" fill="white"/>
<path opacity="0.5" fill-rule="evenodd" clip-rule="evenodd" d="M1675.55 442.252C1675.44 442.507 1675.44 442.507 1675.55 442.252V442.252ZM1683.82 439.621C1684.13 439.755 1684.13 439.755 1683.82 439.621V439.621ZM1683.44 439.548C1687.9 444.304 1681.04 449.981 1676.86 445.339C1672.43 440.413 1680.57 439.564 1683.44 439.548ZM1678.71 432.352C1663.34 435.212 1668.78 456.633 1683.13 453.537C1689.43 452.178 1693.03 445.539 1690.86 439.162C1690.02 436.67 1688.17 433.935 1685.6 433.15C1684.32 432.759 1683.18 433.375 1681.96 433.23C1680.8 433.093 1680.15 432.079 1678.71 432.352Z" fill="white"/>
<path opacity="0.5" fill-rule="evenodd" clip-rule="evenodd" d="M1737.5 438.381C1728.24 438.412 1718.97 438.824 1709.71 439.007C1706.87 439.063 1699.56 437.733 1699.55 442.419C1699.54 447.426 1707.67 445.577 1710.38 445.509C1719.57 445.28 1728.78 444.858 1737.93 443.943C1740.24 443.712 1748.24 444.111 1748.24 440.822C1748.23 437.338 1739.37 438.381 1737.5 438.381Z" fill="white"/>
<path opacity="0.5" fill-rule="evenodd" clip-rule="evenodd" d="M1759.62 471.061C1736.71 471.704 1713.84 471.928 1690.94 473.155C1682.38 473.614 1673.83 473.956 1665.26 473.956C1663.6 473.956 1660.28 473.286 1658.72 474.375C1654.51 477.326 1659.31 479.859 1662.06 480.019C1680.86 481.111 1699.94 478.393 1718.74 477.78C1729.74 477.421 1740.75 477.315 1751.74 476.729C1754.74 476.569 1757.74 476.384 1760.74 476.14C1762.46 476.001 1767.02 476.384 1768.41 475.329C1774.49 470.726 1761.67 471.004 1759.62 471.061Z" fill="white"/>
<path opacity="0.5" fill-rule="evenodd" clip-rule="evenodd" d="M1654.5 482.782C1654.29 488.996 1654.27 495.103 1655.04 501.283C1655.35 503.715 1655.49 506.475 1658.22 507.093C1660.69 507.654 1661.94 505.696 1662.46 503.525C1663.71 498.223 1662.61 490.593 1662.59 485.085C1662.59 482.362 1662.58 479.314 1659.37 478.699C1656.91 478.229 1654.6 480.084 1654.5 482.782Z" fill="white"/>
<path opacity="0.5" fill-rule="evenodd" clip-rule="evenodd" d="M1783.91 497.764C1746.82 499.809 1709.78 501.594 1672.67 503.236C1669.78 503.364 1647.29 503.107 1655.15 511.311C1657.58 513.845 1663.83 512.129 1666.97 511.968C1671.69 511.725 1676.41 511.54 1681.13 511.289C1699.84 510.292 1718.6 510.024 1737.29 508.905C1747.58 508.29 1757.84 507.327 1768.08 506.074C1772.95 505.478 1778.99 505.539 1783.55 503.544C1785.89 502.517 1788.42 497.514 1783.91 497.764Z" fill="white"/>
<path opacity="0.5" fill-rule="evenodd" clip-rule="evenodd" d="M1762.58 466.238C1759.76 469.177 1761.21 474.975 1761.43 478.607C1761.72 483.606 1762.07 488.608 1762.67 493.579C1763.06 496.809 1762.85 501.835 1764.5 504.624C1766.43 507.891 1770.67 507.529 1772.42 504.373C1773.96 501.582 1773.18 495.71 1773.14 492.617C1773.08 488.339 1772.83 484.056 1772.59 479.787C1772.38 476.219 1773.16 470.502 1771.28 467.448C1769.37 464.346 1765.23 463.488 1762.58 466.238Z" fill="white"/>
<path opacity="0.5" fill-rule="evenodd" clip-rule="evenodd" d="M1677.81 489.045C1677.48 489.312 1677.48 489.312 1677.81 489.045V489.045ZM1684.4 488.182C1690.55 489.475 1680.61 496.983 1677.47 491.83C1676.98 491.025 1676.72 490.035 1677.51 489.335C1678.23 488.696 1678.68 489.828 1679.36 489.524C1680.53 489 1683.15 488.133 1684.4 488.182ZM1683.55 482.017C1679.36 482.365 1673.59 482.636 1671.51 487.037C1668.72 492.949 1673.49 498.738 1679.01 499.637C1684.33 500.503 1692.26 497.424 1692.68 490.941C1693.03 485.714 1688.27 481.616 1683.55 482.017Z" fill="white"/>
<path opacity="0.5" fill-rule="evenodd" clip-rule="evenodd" d="M1718.59 485.144C1714.24 485.217 1705.71 483.873 1701.92 486.088C1698.18 488.28 1699.85 492.184 1703.26 493.118C1705.52 493.735 1709.21 492.739 1711.56 492.639C1714.66 492.507 1717.75 492.479 1720.85 492.434C1726.05 492.361 1731.25 492.423 1736.46 492.423C1741.77 492.423 1747.18 492.575 1752.49 492.166C1759.2 491.649 1759.02 486.388 1752.45 485.73C1741.3 484.613 1729.78 484.959 1718.59 485.144Z" fill="white"/>
<path opacity="0.5" fill-rule="evenodd" clip-rule="evenodd" d="M1707.49 544.059C1707.49 546.558 1709.61 544.059 1709.6 544.059C1709.61 544.059 1707.49 541.559 1707.49 544.059Z" fill="white"/>
<path opacity="0.5" fill-rule="evenodd" clip-rule="evenodd" d="M1659.55 523.94C1659.68 531.204 1659.77 538.476 1660.07 545.735C1660.16 548.031 1659.54 552.513 1662.2 553.683C1665.15 554.986 1666.08 551.739 1666.42 549.539C1667.5 542.569 1666.44 534.611 1666.33 527.558C1666.3 525.19 1666.79 521.893 1664.22 520.713C1662.12 519.749 1659.5 521.538 1659.55 523.94Z" fill="white"/>
<path opacity="0.5" fill-rule="evenodd" clip-rule="evenodd" d="M1773.74 524.054C1773.91 524.486 1773.91 524.486 1773.74 524.054V524.054ZM1773.98 523.979C1774.13 524.042 1774.7 524.294 1773.98 523.979V523.979ZM1717.89 518.108C1707.23 518.283 1696.56 518.415 1685.91 518.893C1681.36 519.097 1676.76 519.261 1672.23 519.71C1669.02 520.027 1661.05 520.159 1658.97 522.903C1654.68 528.567 1663.78 527.022 1665.75 526.562C1669.32 525.725 1672.96 525.457 1676.61 525.255C1684.52 524.819 1692.44 524.585 1700.37 524.418C1721.85 523.966 1743.36 524.034 1764.85 523.933C1766.93 523.923 1770.69 523.048 1772.62 523.928C1774.54 524.811 1774.43 526.981 1774.63 529.501C1774.9 532.853 1772.79 539.242 1774.4 542.062C1776.89 546.436 1780.53 542.722 1781.08 539.533C1781.85 535.127 1780.63 529.836 1779.44 525.624C1777.76 519.681 1775.43 519.445 1769.94 518.981C1763.52 518.438 1757.12 518.109 1750.68 518.047C1739.75 517.942 1728.82 517.93 1717.89 518.108Z" fill="white"/>
<path opacity="0.5" fill-rule="evenodd" clip-rule="evenodd" d="M1760.05 548.139C1736.93 550.948 1713.15 549.293 1689.91 549.392C1684.26 549.416 1678.6 549.463 1672.95 549.75C1669.97 549.901 1662.9 549.041 1660.86 551.448C1656.55 556.523 1664.31 557.261 1667.14 557.051C1672.87 556.625 1678.61 556.43 1684.35 556.384C1704.57 556.221 1724.91 557.208 1745.12 556.164C1753.58 555.727 1761.86 554.212 1770.17 552.518C1772.01 552.143 1784.61 549.637 1777.43 546.633C1773.18 544.857 1764.51 547.594 1760.05 548.139Z" fill="white"/>
<path opacity="0.5" fill-rule="evenodd" clip-rule="evenodd" d="M1692.54 538.849C1692.38 539.066 1692.38 539.066 1692.54 538.849V538.849ZM1692.39 538.812C1692.33 538.967 1692.16 539.351 1692.39 538.812V538.812ZM1690.93 536.844C1690.97 536.889 1691.1 537.073 1690.93 536.844V536.844ZM1690.88 536.829C1691.43 537.524 1691.81 538.3 1692 539.155C1687.21 540.513 1685.36 536.459 1690.88 536.829ZM1690.57 536.639C1690.57 536.64 1691.25 536.937 1690.57 536.639V536.639ZM1682.7 530.598C1679.6 534.638 1677.04 539.345 1680.91 543.959C1684.36 548.084 1691.32 548.617 1695.7 545.863C1700.22 543.025 1699.83 537.051 1696.68 533.151C1694.65 530.64 1693.01 530.71 1690.06 530.3C1688.06 530.021 1684.4 528.39 1682.7 530.598Z" fill="white"/>
<path opacity="0.5" fill-rule="evenodd" clip-rule="evenodd" d="M1714.75 538.075C1714.75 543.453 1736.95 541.138 1740.9 541.133C1744.21 541.127 1764.21 543.037 1762.77 537.501C1761.6 532.953 1741.89 535.214 1737.7 535.207C1734.07 535.202 1714.75 532.596 1714.75 538.075Z" fill="white"/>
</g>
<g opacity="0.5">
<path opacity="0.5" fill-rule="evenodd" clip-rule="evenodd" d="M1153.62 507.713C1164.74 509.402 1176.3 514.872 1176.21 528.411C1176.12 539.795 1167 551.91 1155.28 551.23C1144.74 550.618 1134.81 538.553 1133.49 528.214C1132.8 522.857 1134.08 517.09 1137.09 512.683C1141.04 506.909 1147.3 506.918 1153.62 507.713ZM1148.37 500.354C1140.33 500.4 1134.45 503.444 1129.47 509.867C1127.68 512.17 1125.61 514.649 1124.25 517.259C1122.98 519.696 1123.2 525.893 1127.56 522.988C1126.49 534.986 1133.19 546.631 1142.82 552.779C1153.3 559.463 1165.13 558.159 1173.85 548.792C1181.83 540.217 1184.64 525.734 1178.8 515.129C1172.97 504.53 1159.45 500.241 1148.37 500.354Z" fill="white"/>
<path opacity="0.5" fill-rule="evenodd" clip-rule="evenodd" d="M1172.48 497.139C1167.33 501.086 1162.63 506.284 1158.73 511.557C1154.91 516.71 1152.39 523.145 1147.81 527.638C1145.49 525 1142.78 517.875 1138.16 520.702C1134.33 523.048 1136.8 527.081 1138.66 529.73C1143.48 536.569 1148.83 539.321 1155.01 532.564C1160.63 526.428 1163.82 518.242 1169.06 511.752C1171.37 508.905 1174.92 506.078 1176.76 502.935C1178.42 500.085 1176.36 494.154 1172.48 497.139Z" fill="white"/>
</g>
<g opacity="0.5">
<path opacity="0.5" fill-rule="evenodd" clip-rule="evenodd" d="M1733.84 665.124C1734.02 665.097 1734.19 665.077 1734.35 665.066C1738.64 664.782 1742.99 664.899 1747.29 664.795C1756.1 664.582 1765.25 665.085 1774.01 664.006C1775.79 663.765 1776.41 666.153 1775.61 667.391C1774.71 668.781 1771.85 668.71 1770.52 668.916C1766.63 669.518 1762.7 669.728 1758.77 669.91C1754.66 670.101 1750.53 670.244 1746.41 670.364C1742.84 670.467 1734.92 672.029 1731.62 670.466C1729.05 669.248 1729.11 667.895 1730.16 666.847C1729.52 665.383 1729.63 662.985 1729.49 661.834C1728.92 657.012 1728.57 652.251 1728.57 647.387C1728.55 637.859 1728.57 627.964 1731.09 618.742C1730.08 618.28 1729.47 617.599 1729.47 616.617C1729.49 610.784 1749.94 612.177 1754.08 612.061C1759.18 611.922 1764.28 611.904 1769.38 611.933C1772.74 611.952 1777.3 611.191 1780.66 612.006C1787.19 613.593 1786.77 625.308 1786.91 630.973C1787.15 641.134 1787.01 651.816 1786.22 661.954C1785.95 665.454 1783.51 669.89 1780.74 665.065C1779.19 662.375 1779.88 656.091 1779.88 653.118C1779.87 642.552 1781.45 631.666 1779.94 621.153C1779.44 617.707 1779.55 617.474 1776.2 617.547C1773.54 617.604 1770.88 617.697 1768.23 617.755C1762.81 617.874 1757.4 617.952 1751.99 618.159C1749.93 618.238 1742.55 619.588 1736.79 619.583C1736.79 619.631 1736.79 619.679 1736.8 619.728C1736.87 623.802 1734.97 628.746 1734.71 633.033C1734.08 643.342 1734.83 653.892 1733.9 664.149C1733.88 664.46 1733.86 664.791 1733.84 665.124Z" fill="white"/>
<path opacity="0.5" fill-rule="evenodd" clip-rule="evenodd" d="M1811.38 668.105C1810.71 667.39 1810.1 666.34 1809.72 665.03C1808.33 660.327 1808.2 655.251 1808.09 650.374C1807.87 639.951 1807.98 629.509 1807.92 619.082C1807.02 617.812 1807.56 616.36 1808.68 615.347C1811.73 612.611 1820.51 613.305 1824.37 613.091C1829.94 612.783 1835.51 612.712 1841.08 612.69C1846.98 612.659 1852.89 612.77 1858.79 612.96C1860.98 613.03 1876.19 613.431 1869.39 617.29C1869 617.511 1868.56 617.695 1868.09 617.849C1868.37 619.602 1868.4 621.413 1868.36 622.285C1868.07 627.834 1867.94 633.394 1867.71 638.946C1867.45 645.143 1867.2 651.339 1866.99 657.539C1866.88 660.817 1867.96 668.438 1865.48 670.804C1863.81 672.399 1862.66 672.08 1861.89 670.996C1855.96 672.799 1842.27 671.637 1839.78 671.639C1835.31 671.64 1811.04 674.645 1811 669.237C1811 668.818 1811.13 668.442 1811.38 668.105ZM1815.32 666.192C1822.09 664.68 1834.71 665.69 1837.36 665.68C1842.31 665.659 1847.26 665.731 1852.2 665.938C1853.74 666.003 1857.51 665.692 1860.48 666.037C1860.46 665.756 1860.44 665.498 1860.43 665.275C1860.16 659.694 1860.45 654.055 1860.63 648.474C1860.8 642.849 1861.06 637.228 1861.27 631.604C1861.38 628.712 1860.68 622.673 1861.44 618.51C1857.84 618.439 1854.07 617.985 1851.65 617.984C1845.96 617.984 1840.28 617.916 1834.59 618.034C1828.45 618.162 1822.24 618.237 1816.14 619.085C1815.8 619.131 1815.4 619.221 1814.96 619.33C1815.89 623.394 1814.76 629.93 1814.75 633.695C1814.74 644.245 1815.11 654.738 1815.34 665.233C1815.35 665.577 1815.34 665.896 1815.32 666.192Z" fill="white"/>
<path opacity="0.5" fill-rule="evenodd" clip-rule="evenodd" d="M1754.26 670.142C1750.6 672.378 1752.58 681.32 1753.84 684.413C1755.93 689.498 1760.15 693.478 1764.71 696.117C1773.93 701.453 1787.22 700.036 1794.19 709.285C1794.26 709.381 1796.67 711.877 1797.22 708.645C1797.67 705.992 1793.17 701.941 1791.43 700.611C1786.47 696.83 1780.12 695.611 1774.38 693.722C1768.27 691.707 1761.56 687.993 1758.99 681.398C1758.08 679.061 1759.81 666.732 1754.26 670.142Z" fill="white"/>
<path opacity="0.5" fill-rule="evenodd" clip-rule="evenodd" d="M1837.88 674.441C1834.52 675.408 1836.74 680.234 1836.74 682.65C1836.73 685.664 1835.81 688.819 1834.03 691.224C1829.53 697.324 1820.71 698.238 1814.1 699.987C1809.3 701.258 1797.82 703.983 1797.37 710.774C1796.87 718.359 1807.01 709.129 1807.86 708.751C1817.34 705.114 1829.6 704.412 1836.91 696.407C1839.93 693.103 1841.72 688.692 1842 684.14C1842.16 681.578 1842.19 673.21 1837.88 674.441Z" fill="white"/>
<path opacity="0.5" fill-rule="evenodd" clip-rule="evenodd" d="M1792.98 715.999C1806.93 712.154 1819.93 722.381 1821.57 737.093C1823.31 752.619 1812.13 765.118 1797.38 765.803C1784.4 766.406 1768.7 756.686 1768.62 741.713C1768.54 727.681 1781.38 719.192 1792.98 715.999ZM1799.7 726.465C1797.31 727.92 1796.87 724.145 1795.19 723.647C1793.49 723.147 1790.76 725.014 1789.35 726.102C1786.95 727.95 1780.31 738.706 1777.09 732.865C1767.32 750.52 1791.68 763.733 1805.53 757.051C1820.75 749.713 1817.79 722.886 1799.78 722.746C1800.54 723.82 1801.22 725.532 1799.7 726.465Z" fill="white"/>
<path opacity="0.5" fill-rule="evenodd" clip-rule="evenodd" d="M1787.01 737.015C1787.01 740.236 1791.88 740.236 1791.88 737.015C1791.88 733.831 1787.01 733.695 1787.01 737.015Z" fill="white"/>
<path opacity="0.5" fill-rule="evenodd" clip-rule="evenodd" d="M1795.57 736.411C1795.57 740.356 1801.53 740.356 1801.53 736.411C1801.53 732.51 1795.57 732.344 1795.57 736.411Z" fill="white"/>
<path opacity="0.5" fill-rule="evenodd" clip-rule="evenodd" d="M1789.45 745.604C1784.57 748.603 1798.51 754.56 1799.06 748.472C1799.3 745.846 1796.86 746.554 1795.24 746.361C1793.69 746.176 1790.92 744.708 1789.45 745.604Z" fill="white"/>
<path opacity="0.5" fill-rule="evenodd" clip-rule="evenodd" d="M1787.33 766.877C1787.55 774.535 1787.44 782.189 1788.83 789.741C1789.1 791.175 1789.28 796.378 1790.36 797.443C1793.03 800.064 1793.07 795.04 1793.17 793.115C1793.54 786.22 1792.85 779.11 1792.7 772.2C1792.67 770.713 1793.04 767.632 1792.37 766.193C1791.31 763.907 1787.23 763.229 1787.33 766.877Z" fill="white"/>
<path opacity="0.5" fill-rule="evenodd" clip-rule="evenodd" d="M1782.12 760.667C1771.44 773.21 1756.73 772.286 1741.91 773.384C1734.09 773.965 1726.17 775.157 1719.87 780.455C1716.94 782.92 1714.41 786.007 1712.71 789.525C1711.97 791.064 1708.45 799.938 1713.74 797.833C1715.61 797.086 1717.46 791.217 1718.67 789.481C1720.98 786.175 1723.94 783.445 1727.48 781.671C1734.32 778.248 1742.48 778.307 1749.9 777.872C1757.65 777.419 1765.97 776.994 1773.09 773.468C1776.44 771.809 1779.59 769.74 1782.29 767.075C1783.25 766.121 1785.32 764.503 1785.47 763.045C1785.65 761.38 1784.12 758.33 1782.12 760.667Z" fill="white"/>
<path opacity="0.5" fill-rule="evenodd" clip-rule="evenodd" d="M1728.2 799.165C1718.17 799.516 1708.15 799.94 1698.13 800.604C1696.07 800.74 1689.23 800.306 1690.97 804.708C1692.37 808.237 1700.72 805.903 1703.48 805.732C1713.92 805.083 1724.4 804.858 1734.82 803.875C1737.16 803.655 1747.74 803.742 1743.37 799.403C1741.3 797.337 1731.07 799.063 1728.2 799.165Z" fill="white"/>
<path opacity="0.5" fill-rule="evenodd" clip-rule="evenodd" d="M1684.6 804.228C1681.44 808.574 1682.89 819.136 1683.13 824.36C1683.36 829.423 1682.42 838.68 1688.74 839.465C1686.73 839.189 1690.26 839.592 1690.83 839.624C1692.12 839.696 1693.41 839.719 1694.69 839.734C1697.66 839.768 1700.62 839.727 1703.59 839.664C1710.31 839.524 1717.05 839.32 1723.76 838.931C1726.58 838.767 1741.88 838.904 1742.49 835.838C1743.26 831.921 1728.59 834.137 1725.96 834.262C1719.56 834.569 1713.16 834.633 1706.76 834.721C1703.58 834.765 1700.41 834.798 1697.23 834.733C1695.92 834.706 1690.74 835.269 1689.94 834.354C1689.26 833.575 1689.79 826.418 1689.78 825.323C1689.73 821.754 1689.73 818.176 1689.85 814.608C1689.94 812.206 1691.18 807.636 1690.17 805.38C1689.18 803.187 1686.31 802.438 1684.6 804.228Z" fill="white"/>
<path opacity="0.5" fill-rule="evenodd" clip-rule="evenodd" d="M1736.26 804.431C1736.45 812.381 1736.5 820.492 1738.3 828.267C1738.9 830.855 1739.73 836.191 1742.22 837.53C1744.83 838.936 1747.08 836.929 1747.25 834.226C1747.46 830.827 1745.72 826.365 1745.37 822.878C1744.95 818.809 1744.71 814.737 1744.56 810.648C1744.46 807.573 1745.35 802.963 1742.55 800.98C1740.03 799.199 1736.18 800.993 1736.26 804.431Z" fill="white"/>
<path opacity="0.5" fill-rule="evenodd" clip-rule="evenodd" d="M1756.23 802.49C1753.11 805.742 1754.51 816.039 1754.9 820.217C1755.18 823.278 1758.38 838.334 1763.18 830.483C1765.3 827.01 1762.61 817.827 1762.63 813.777C1762.64 811.198 1763.51 807.937 1763.09 805.459C1762.53 802.184 1759.06 799.532 1756.23 802.49Z" fill="white"/>
<path opacity="0.5" fill-rule="evenodd" clip-rule="evenodd" d="M1829.63 829.363C1830.32 830.142 1830.63 831.25 1830.18 832.335C1829.11 834.941 1825.16 834.378 1823.01 834.565C1815.86 835.189 1808.67 835.605 1801.49 835.671C1794.55 835.735 1787.61 835.549 1780.67 835.62C1774.89 835.68 1768.87 836.905 1763.14 836.659C1760.75 836.556 1758.2 835.737 1758.81 832.505C1759.34 829.637 1762.1 829.614 1764.35 829.374C1771.12 828.653 1777.9 828.397 1784.71 828.423C1799.02 828.475 1813.31 828.397 1827.61 828.319C1828.2 828.37 1828.75 828.605 1829.21 828.963C1828.46 828.013 1828.82 826.606 1828.68 825.233C1828.31 821.53 1828.06 817.891 1827.39 814.19C1826.86 811.229 1826.45 806.199 1823.83 804.337C1820.97 802.303 1814.61 802.976 1811.19 802.883C1802 802.635 1792.75 803.318 1783.6 804.189C1779.43 804.586 1775.2 804.888 1771.08 805.672C1768.78 806.109 1762.04 809.638 1760.2 807.467C1755.78 802.238 1775.2 800.091 1777.84 799.806C1787.21 798.794 1796.59 798.035 1806.02 797.941C1812.38 797.889 1823.28 797.322 1827.95 802.785C1830.77 806.065 1831.75 811.469 1832.85 815.563C1833.69 818.706 1835.97 824.375 1834.35 827.622C1833.62 829.091 1832.43 830.344 1830.64 829.824C1830.22 829.702 1829.89 829.547 1829.63 829.363Z" fill="white"/>
<path opacity="0.5" fill-rule="evenodd" clip-rule="evenodd" d="M1877.56 787.9C1877.96 788.449 1877.96 788.449 1877.56 787.9V787.9ZM1814.13 755.504C1808.44 759.005 1818.97 769.277 1821.65 770.866C1827.69 774.441 1835.99 774.98 1842.74 775.985C1851.27 777.258 1860.56 777.727 1868.76 780.653C1872.26 781.9 1874.48 783.846 1876.77 786.836C1877.93 788.351 1880.72 794.882 1883.26 793.336C1888.38 790.222 1874.59 777.157 1871.55 775.752C1864.64 772.559 1856.47 771.664 1849.08 770.425C1842.21 769.271 1835.19 768.413 1828.49 766.38C1824.81 765.262 1822.19 763.459 1820.07 760.007C1818.74 757.856 1817.66 753.343 1814.13 755.504Z" fill="white"/>
<path opacity="0.5" fill-rule="evenodd" clip-rule="evenodd" d="M1844.67 831.133C1842.96 827.719 1842.18 821.158 1842.03 819.863C1841.38 814.28 1841.33 808.764 1841.42 803.147C1841.47 800.064 1844.84 798.594 1847.03 800.323C1849.95 799.043 1854.9 798.85 1857.56 798.57C1861.92 798.108 1866.33 797.936 1870.71 797.662C1880.93 797.023 1891.15 795.869 1901.39 795.631C1904.46 795.565 1908.57 795.275 1911.02 797.642C1913.81 800.338 1914.37 807.026 1915.2 810.629C1916.11 814.542 1917.2 818.524 1917.58 822.538C1917.66 823.479 1917.9 825.094 1917.8 826.547C1919.07 826.729 1919.84 828.023 1919.71 829.437C1919.47 832.062 1915.99 832.42 1913.96 832.836C1907.19 834.217 1899.96 833.903 1893.11 834.106C1878.76 834.528 1863.43 836.952 1849.14 835.509C1846.69 835.262 1844.06 834.358 1844.67 831.133ZM1849.83 828.044C1850.4 828.04 1850.96 828.051 1851.48 828.041C1858.7 827.909 1865.91 827.68 1873.12 827.39C1880.47 827.095 1887.82 826.766 1895.18 826.677C1901.03 826.608 1907.05 827.136 1912.94 826.898C1911.68 823.429 1911.87 817.969 1911.19 814.377C1910.52 810.81 1910.27 806.581 1908.9 803.231C1907.35 799.463 1906.01 800.335 1902 800.62C1897.87 800.914 1893.74 801.326 1889.61 801.681C1880.54 802.462 1871.46 802.956 1862.39 803.617C1857.68 803.96 1853.17 805.366 1848.57 805.918C1848.5 807.637 1848.27 809.372 1848.29 810.627C1848.37 814.329 1848.72 818.004 1849.03 821.69C1849.15 823.189 1849.74 825.776 1849.83 828.044Z" fill="white"/>
</g>
</g>
<path fill-rule="evenodd" clip-rule="evenodd" d="M1612.48 811.032C1576.57 821.543 1545.59 826.799 1519.54 826.799C1493.49 826.799 1469.29 818.705 1446.95 802.517C1482.09 791.728 1511.02 786.333 1533.76 786.333C1556.5 786.333 1582.74 794.566 1612.48 811.032Z" fill="#5FAFAA"/>
<mask id="mask0" mask-type="alpha" maskUnits="userSpaceOnUse" x="1417" y="647" width="162" height="360">
<path d="M1488.46 832.551C1488.8 832.006 1489.1 831.414 1489.33 830.772C1494.13 817.487 1571.01 674.169 1578.67 647.967H1492.11C1486.29 667.889 1460.08 792.909 1456.39 817.852C1444.75 857.197 1420.79 984.623 1417.73 993.451C1414.51 1002.74 1432.62 1012.41 1437.44 1000.99C1445.12 982.829 1463.41 932.564 1471.56 901.873C1479.19 873.1 1485.41 847.215 1488.46 832.551Z" fill="white"/>
</mask>
<g mask="url(#mask0)">
<path d="M1488.46 832.551C1488.8 832.006 1489.1 831.414 1489.33 830.772C1494.13 817.487 1571.01 674.169 1578.67 647.967H1492.11C1486.29 667.889 1460.08 792.909 1456.39 817.852C1444.75 857.197 1420.79 984.623 1417.73 993.451C1414.51 1002.74 1432.62 1012.41 1437.44 1000.99C1445.12 982.829 1463.41 932.564 1471.56 901.873C1479.19 873.1 1485.41 847.215 1488.46 832.551Z" fill="#F2C4A8"/>
</g>
<path fill-rule="evenodd" clip-rule="evenodd" d="M1559.27 850.049C1594.42 859.346 1722.98 876.155 1731.8 878.791C1740.88 881.503 1748.84 861.924 1737.62 857.683C1719.77 850.934 1670.58 835.342 1640.76 828.979C1616.78 823.861 1594.89 819.684 1580.2 817.239C1581.44 774.037 1587.13 670.359 1583.4 647.967H1506.82C1510.4 669.439 1540.63 826.118 1546.25 841.801C1548.03 847.4 1553.36 849.874 1559.27 850.049Z" fill="#F2C4A8"/>
<path fill-rule="evenodd" clip-rule="evenodd" d="M1735.79 852.684C1740.91 851.697 1744.63 851.424 1746.96 851.865C1749.66 852.376 1753.51 853.583 1758.53 855.487C1758.01 858.705 1753.26 887.626 1744.3 942.25C1736.68 943.132 1732.98 941.089 1733.2 936.122C1733.42 931.155 1733.56 927.021 1733.63 923.72L1722.69 879.742C1722.52 879.086 1722.9 878.425 1723.54 878.266C1723.55 878.264 1723.56 878.261 1723.57 878.259L1730.44 876.751C1733.22 872.641 1734.84 869.18 1735.3 866.368C1735.69 863.966 1735.25 860.414 1733.98 855.712L1733.98 855.712C1733.63 854.407 1734.36 853.069 1735.62 852.724C1735.68 852.708 1735.73 852.695 1735.79 852.684Z" fill="#5FAFAA"/>
<path fill-rule="evenodd" clip-rule="evenodd" d="M1442.68 998.806C1444.53 1003.84 1445.45 1007.58 1445.45 1010.02C1445.45 1012.84 1445 1016.97 1444.1 1022.39C1440.97 1022.39 1412.83 1022.39 1359.68 1022.39C1357.49 1014.79 1358.75 1010.7 1363.48 1010.09C1368.21 1009.49 1372.13 1008.94 1375.26 1008.45L1414.8 990C1415.39 989.724 1416.09 990.002 1416.35 990.619C1416.35 990.629 1416.36 990.64 1416.36 990.651L1419.01 997.381C1423.39 999.517 1426.94 1000.59 1429.68 1000.59C1432.02 1000.59 1435.29 999.547 1439.5 997.469L1439.5 997.469C1440.67 996.893 1442.06 997.416 1442.61 998.639C1442.64 998.694 1442.66 998.749 1442.68 998.806Z" fill="#5FAFAA"/>
<mask id="mask1" mask-type="alpha" maskUnits="userSpaceOnUse" x="1446" y="653" width="170" height="160">
<path d="M1583.16 657.366C1550.83 650.394 1519.61 651.96 1489.49 662.066C1467.9 743.53 1454.43 729.389 1446.95 803.968C1497.84 830.434 1560.7 785.092 1613.09 810.902C1628.06 774.801 1574.08 760.762 1583.16 657.366Z" fill="white"/>
</mask>
<g mask="url(#mask1)">
<path d="M1583.16 657.366C1550.83 650.394 1519.61 651.96 1489.49 662.066C1467.9 743.53 1454.43 729.389 1446.95 803.968C1497.84 830.434 1560.7 785.092 1613.09 810.902C1628.06 774.801 1574.08 760.762 1583.16 657.366Z" fill="#94DBD7"/>
</g>
<path fill-rule="evenodd" clip-rule="evenodd" d="M1484.58 443.733C1478.72 465.217 1470.59 505.941 1479.62 517.06C1483.83 525.206 1491.15 529.278 1501.59 529.278C1512.02 529.278 1520.63 526.964 1527.39 522.336C1527.4 522.081 1527.42 521.829 1527.43 521.578C1537.55 518.943 1545.06 509.368 1545.06 497.96C1545.06 494.544 1544.37 491.166 1543.04 488.046C1539.35 479.397 1537.51 473.942 1537.51 471.679C1537.51 468.992 1540.11 460.53 1545.31 446.295C1550.28 432.725 1543.78 417.516 1530.81 412.326C1527.94 411.178 1524.9 410.59 1521.83 410.59H1509.73C1495.84 410.59 1484.58 422.368 1484.58 436.897V443.733V443.733Z" fill="#2D2D2D"/>
<mask id="mask2" mask-type="alpha" maskUnits="userSpaceOnUse" x="1517" y="461" width="41" height="83">
<path d="M1557.45 543.622L1540.61 461.122H1528.45L1517.36 543.622H1557.45Z" fill="white"/>
</mask>
<g mask="url(#mask2)">
<path d="M1557.45 543.622L1540.61 461.122H1528.45L1517.36 543.622H1557.45Z" fill="#F2C4A8"/>
<path opacity="0.1" d="M1536.03 492.718C1534.37 496.229 1529.26 499.993 1520.7 504.01L1524.04 487.452L1544.09 472.771C1540.37 482.558 1537.69 489.208 1536.03 492.718Z" fill="black"/>
</g>
<path fill-rule="evenodd" clip-rule="evenodd" d="M1489.83 464.465L1488.95 468.144L1487.28 475.165L1491.87 477.576C1494.59 489.532 1499.37 498.744 1505.21 498.744C1538.52 498.744 1557.13 463.536 1555.69 441.859C1553.18 404.294 1503.41 412.558 1493.73 431.517C1489.74 439.332 1488.71 452.125 1489.83 464.465Z" fill="#F2C4A8"/>
<path fill-rule="evenodd" clip-rule="evenodd" d="M1432.27 639.522L1389.86 682.792C1377.51 688.289 1367.39 694.363 1359.51 701.014C1357.74 703.251 1355.81 707.537 1364.16 705.627C1372.5 703.717 1381.37 702.101 1382.94 704.942C1384.51 707.783 1379.89 712.129 1382.79 715.849C1384.73 718.328 1391.22 710.455 1402.28 692.23L1446.4 665.056L1432.27 639.522ZM1620.75 645.644L1589.35 645.831C1608.63 711.013 1619.04 745.597 1620.58 749.585C1624.04 758.557 1616.66 772.245 1613.5 779.6C1623.74 784.359 1622.68 766.665 1635.6 772.908C1647.39 778.606 1656.35 788.953 1670 780.162C1671.68 779.082 1673.52 775.021 1669.09 771.859C1658.05 763.98 1642.13 750.185 1639.99 745.638C1637.06 739.438 1630.65 706.107 1620.75 645.644Z" fill="#F2C4A8"/>
<path fill-rule="evenodd" clip-rule="evenodd" d="M1531.7 508.28L1518.73 505.943C1496.46 564.195 1457.52 617.106 1401.93 664.676L1444.02 718.083C1499.59 650.327 1533.82 580.397 1531.7 508.28Z" fill="#C88269"/>
<path fill-rule="evenodd" clip-rule="evenodd" d="M1588.17 678.489H1472.82C1499.54 610.544 1512.91 552.825 1512.91 505.333L1547.7 499.912C1575.05 545.901 1582.77 602.523 1588.17 678.489Z" fill="#DDE3E9"/>
<path fill-rule="evenodd" clip-rule="evenodd" d="M1548.44 499.938C1548.43 499.929 1548.43 499.921 1548.43 499.912L1546.15 499.912C1543.44 500.01 1539.3 500.186 1533.73 500.441L1525.33 525.566C1524.44 556.199 1519.24 617.933 1509.75 710.768H1585.36C1585.16 717.179 1584.84 723.651 1584.38 730.183H1640.6C1632.19 630.969 1601.48 554.212 1548.47 499.912L1548.44 499.938V499.938Z" fill="#C88269"/>
<path fill-rule="evenodd" clip-rule="evenodd" d="M1580.37 628.727C1578.21 668.695 1572.83 696.248 1564.2 711.385H1585.34C1586.27 682.629 1584.61 655.077 1580.37 628.727V628.727Z" fill="black" fill-opacity="0.1"/>
<path fill-rule="evenodd" clip-rule="evenodd" d="M1568.53 662.824L1531.24 644.699V662.824H1568.53Z" fill="white" fill-opacity="0.2"/>
<path fill-rule="evenodd" clip-rule="evenodd" d="M1531.91 470.021C1525.61 497.38 1519.18 532.109 1527.16 555.838C1535.42 566.682 1547.21 572.104 1562.54 572.104C1577.87 572.104 1586.64 566.682 1588.86 555.838C1591.72 485.183 1557.18 535.048 1557.18 468.524C1557.18 466.991 1557.17 465.51 1557.16 464.08C1557.17 463.25 1557.18 462.39 1557.18 461.502C1557.18 419.368 1544.73 410.59 1525.29 410.59C1512.34 410.59 1502.83 414.686 1496.77 422.879C1491.17 433.412 1495.09 438.679 1508.51 438.679C1511.48 438.679 1521.94 441.34 1526.97 448.424C1527.71 449.461 1528.39 450.533 1529.02 451.628C1530.18 451.069 1531.48 450.758 1532.85 450.758C1537.95 450.758 1542.08 455.081 1542.08 460.414C1542.08 465.747 1537.95 470.07 1532.85 470.07C1532.53 470.07 1532.22 470.053 1531.91 470.021Z" fill="#2D2D2D"/>
</g>
<g clip-path="url(#clip1)">
<path opacity="0.2" d="M335.592 740.534C485.119 762.531 609.04 760.223 612.375 735.379C615.711 710.535 497.199 672.563 347.671 650.565C198.143 628.568 74.2229 630.876 70.8872 655.72C67.5515 680.564 186.064 718.537 335.592 740.534Z" fill="white"/>
<path d="M523.925 394.887L461.739 379.061C457.333 378.331 449.048 379.659 449.048 387.609C449.048 395.559 450.979 422.814 434.705 451.206C418.431 479.597 484.851 548.872 504.792 500.039C524.733 451.206 526.903 426.216 528.249 414.865C529.595 403.514 528.105 396.342 523.925 394.887Z" fill="#EFEFEF"/>
<path d="M281.891 707.167C339.522 707.167 386.24 659.66 386.24 601.056C386.24 542.453 339.522 494.946 281.891 494.946C224.261 494.946 177.542 542.453 177.542 601.056C177.542 659.66 224.261 707.167 281.891 707.167Z" fill="#BAC9D6"/>
<path fill-rule="evenodd" clip-rule="evenodd" d="M479.168 684.073C461.82 643.911 449.262 608.946 444.212 590.502C435.566 558.921 428.98 531.133 427.309 520.758C423.324 496.017 457.529 494.652 462.075 506.953C468.956 525.572 481.026 586.724 495.567 679.083L479.168 684.073ZM277.783 558.4C293.705 551.754 349.457 530.947 376.34 525.04C384.065 523.343 391.552 521.765 398.591 520.339C419.514 516.1 430.285 555.779 410.135 558.866C359.954 566.553 288.82 574.527 282.732 575.418C274.2 576.668 267.777 562.576 277.783 558.4Z" fill="#F2C4A8"/>
<path fill-rule="evenodd" clip-rule="evenodd" d="M411.463 509.701L325.257 463.886V453.917H335.505C418.873 476.095 461.474 490.308 463.308 496.556C463.366 496.755 463.41 496.954 463.44 497.155C479.837 521.477 489.881 636.592 493.122 645.245L461.616 650.103C449.458 603.169 410.816 570.402 411.718 514.227C411.448 512.639 411.37 511.131 411.463 509.701Z" fill="#6281B0"/>
<path fill-rule="evenodd" clip-rule="evenodd" d="M333.017 537.007C324.9 535.308 317.429 533.792 311.058 532.625C270.927 525.277 259.224 502.849 266.144 453.917L340.085 453.917C352.164 457.539 414.935 485.021 447.503 499.638C469.089 509.326 462.245 544.284 450.007 553.301C449.923 553.796 449.707 554.134 449.343 554.293C383.647 582.993 331.796 568.236 314.443 573.069L306.508 546.609L333.017 537.007Z" fill="#799ACB"/>
<path fill-rule="evenodd" clip-rule="evenodd" d="M283.986 553.863C279.325 554.339 276.038 555.069 274.124 556.054C271.897 557.199 268.825 559.252 264.906 562.213C266.134 564.869 277.17 588.738 298.014 633.82C304.857 632.603 307.59 629.868 306.213 625.613C304.837 621.358 303.728 617.806 302.886 614.957L301.919 573.958C301.904 573.33 301.402 572.846 300.796 572.875C300.786 572.875 300.777 572.876 300.767 572.877L294.452 573.355C291.052 570.51 288.815 567.927 287.742 565.607C286.829 563.632 286.364 560.452 286.347 556.066L286.347 556.066C286.342 554.811 285.356 553.819 284.145 553.852C284.092 553.854 284.039 553.857 283.986 553.863Z" fill="#E8E8E8"/>
<path fill-rule="evenodd" clip-rule="evenodd" d="M471.392 676.026C469.735 680.545 468.906 683.901 468.906 686.094C468.906 688.646 469.313 692.369 470.128 697.263C472.963 697.263 498.441 697.263 546.562 697.263C548.549 690.408 547.402 686.707 543.123 686.16C538.843 685.614 535.288 685.12 532.458 684.679L496.676 668.026C496.129 667.771 495.487 668.029 495.244 668.602C495.24 668.612 495.236 668.621 495.233 668.63L492.843 674.681C488.882 676.611 485.662 677.576 483.185 677.576C481.078 677.576 478.129 676.645 474.34 674.784L474.34 674.784C473.255 674.251 471.963 674.739 471.454 675.875C471.432 675.925 471.411 675.975 471.392 676.026Z" fill="#E8E8E8"/>
<path fill-rule="evenodd" clip-rule="evenodd" d="M362.848 248.912C368.65 269.88 376.687 309.625 367.755 320.477C363.597 328.427 356.357 332.402 346.033 332.402C335.709 332.402 327.202 330.143 320.511 325.626C320.497 325.373 320.484 325.122 320.471 324.872C310.53 322.268 303.168 312.855 303.168 301.642C303.168 298.25 303.856 294.897 305.187 291.805C308.732 283.57 310.505 278.364 310.505 276.187C310.505 273.468 307.739 264.692 302.208 249.861C297.523 237.3 303.453 223.141 315.454 218.237C318.157 217.132 321.034 216.565 323.937 216.565H339.522C352.405 216.565 362.848 227.497 362.848 240.982V248.912Z" fill="#DF7979"/>
<mask id="mask3" mask-type="alpha" maskUnits="userSpaceOnUse" x="290" y="266" width="41" height="81">
<path d="M290.376 346.884L307.047 266.636H319.071L330.054 346.884H290.376Z" fill="white"/>
</mask>
<g mask="url(#mask3)">
<path d="M290.376 346.884L307.047 266.636H319.071L330.054 346.884H290.376Z" fill="#F2C4A8"/>
<path opacity="0.1" d="M311.573 297.37C313.213 300.784 318.271 304.446 326.747 308.353L323.441 292.247L303.602 277.966C307.277 287.487 309.934 293.955 311.573 297.37Z" fill="black"/>
</g>
<path fill-rule="evenodd" clip-rule="evenodd" d="M357.293 269.887L358.159 273.466L359.812 280.295L355.271 282.64C352.579 294.27 347.853 303.231 342.075 303.231C309.114 303.231 290.691 268.983 292.123 247.898C294.606 211.359 343.856 219.397 353.436 237.839C357.385 245.44 358.395 257.884 357.293 269.887Z" fill="#F2C4A8"/>
<path fill-rule="evenodd" clip-rule="evenodd" d="M409.352 431.382L447.707 470.534C458.863 475.519 468.005 481.021 475.132 487.041C476.735 489.064 478.482 492.939 470.943 491.201C463.404 489.463 455.4 487.99 453.985 490.554C452.569 493.118 456.746 497.051 454.129 500.407C452.385 502.644 446.511 495.522 436.507 479.041L396.632 454.427L409.352 431.382ZM239.211 436.895L267.45 436.984C249.962 496.015 240.521 527.337 239.128 530.949C235.994 539.077 242.6 551.444 245.424 558.091C236.204 562.424 237.2 546.41 225.57 552.092C214.953 557.278 206.873 566.665 194.62 558.745C193.114 557.772 191.465 554.102 195.458 551.229C205.407 544.071 219.746 531.548 221.686 527.428C224.331 521.81 230.172 491.632 239.211 436.895Z" fill="#F2C4A8"/>
<path fill-rule="evenodd" clip-rule="evenodd" d="M319.557 312.692L331.254 310.597C351.418 363.277 386.602 411.152 436.806 454.223L398.908 502.434C348.701 441.119 317.741 377.869 319.557 312.692Z" fill="#FFEAB5"/>
<path fill-rule="evenodd" clip-rule="evenodd" d="M268.533 466.621H372.759C348.612 405.183 336.539 352.992 336.539 310.048L305.099 305.146C280.39 346.731 273.412 397.93 268.533 466.621Z" fill="#DDE3E9"/>
<path fill-rule="evenodd" clip-rule="evenodd" d="M304.433 305.169C304.437 305.161 304.441 305.154 304.446 305.146L306.498 305.146C308.954 305.234 312.694 305.394 317.719 305.624L325.316 328.343C326.12 356.042 330.813 411.864 339.395 495.808H271.072C271.251 501.606 271.547 507.457 271.958 513.363H221.157C228.756 423.651 256.506 354.246 304.408 305.146L304.433 305.169V305.169Z" fill="#FFEAB5"/>
<path fill-rule="evenodd" clip-rule="evenodd" d="M275.585 421.625C277.53 457.765 282.398 482.679 290.19 496.366H271.09C270.253 470.364 271.752 445.45 275.585 421.625V421.625Z" fill="black" fill-opacity="0.1"/>
<path fill-rule="evenodd" clip-rule="evenodd" d="M286.279 452.456L319.969 436.067V452.456H286.279Z" fill="white" fill-opacity="0.2"/>
<path fill-rule="evenodd" clip-rule="evenodd" d="M314.52 274.65C320.647 301.389 326.908 335.332 319.138 358.524C311.103 369.122 299.624 374.421 284.702 374.421C269.779 374.421 261.238 369.122 259.076 358.524C256.294 289.469 289.917 338.204 289.917 273.187C289.917 271.689 289.925 270.241 289.941 268.844C289.925 268.032 289.917 267.192 289.917 266.324C289.917 225.144 302.041 216.565 320.959 216.565C333.572 216.565 342.829 220.569 348.73 228.576C354.176 238.871 350.364 244.018 337.294 244.018C334.405 244.018 324.225 246.619 319.323 253.542C318.606 254.556 317.944 255.604 317.337 256.673C316.2 256.128 314.937 255.824 313.606 255.824C308.643 255.824 304.62 260.049 304.62 265.261C304.62 270.473 308.643 274.698 313.606 274.698C313.914 274.698 314.219 274.682 314.52 274.65Z" fill="#DF7979"/>
<g opacity="0.8" filter="url(#filter0_f)">
<path d="M518.03 133.839L482.335 124.782C479.805 124.366 476.548 126.57 475.074 129.654L444.195 191.757C442.918 194.204 443.506 197.905 445.492 200.071L473.313 234.491C475.169 237.077 478.002 236.243 479.656 232.58L519.008 143.177C520.86 138.877 520.429 134.674 518.03 133.839Z" fill="#EFEFEF"/>
</g>
<g opacity="0.3" filter="url(#filter1_f)">
<path d="M572.128 278.963L547.893 256.396C546.086 254.973 542.686 255.264 540.329 257.015C533.23 275.887 526.647 287.5 520.581 291.855C515.893 295.22 504.892 300.468 487.578 307.599C485.624 308.942 484.63 312.069 485.327 314.614L497.845 337.584C498.275 340.398 500.807 340.984 503.531 338.862C519.861 336.711 531.312 333.023 537.885 327.798C545.911 321.417 556.359 307.696 569.228 286.634C572.356 284.104 573.668 280.656 572.128 278.963Z" fill="#EFEFEF"/>
</g>
<g opacity="0.8" filter="url(#filter2_f)">
<path d="M256.41 254.284L232.175 276.851C230.369 278.275 226.969 277.984 224.612 276.233C217.512 257.36 210.929 245.747 204.863 241.393C200.175 238.028 189.174 232.78 171.861 225.649C169.907 224.305 168.913 221.179 169.609 218.634L182.127 195.664C182.557 192.849 185.089 192.263 187.814 194.385C204.143 196.536 215.595 200.224 222.167 205.449C230.194 211.83 240.642 225.552 253.51 246.613C256.638 249.143 257.95 252.592 256.41 254.284Z" fill="#EFEFEF"/>
</g>
<g filter="url(#filter3_f)">
<path d="M450.757 584.04L391.931 529.337C387.544 525.89 379.256 526.637 373.494 530.929L255.215 616.091C250.441 619.385 247.987 627.013 249.658 633.206L269.146 727.673C270.165 734.523 276.329 735.924 282.99 730.723L443.611 602.76C451.259 596.561 454.492 588.146 450.757 584.04Z" fill="#EFEFEF"/>
</g>
<path d="M5.38793 544.996L60.4359 579.162C64.4451 581.208 72.739 582.473 74.9595 574.871C77.1799 567.268 82.9465 540.613 106.44 518.443C122.102 503.662 138.6 493.806 155.935 488.875C159.23 485.512 160.023 479.075 157.756 474.424L127.942 402.537C126.092 397.261 118.956 398.031 113.531 402.537C84.9798 420.599 64.8211 436.518 53.0548 450.294C40.7659 464.681 25.8236 490.924 8.22781 529.023C3.09 535.141 1.79666 542.325 5.38793 544.996Z" fill="#EFEFEF"/>
</g>
<defs>
<filter id="filter0_f" x="438.928" y="120.14" width="85.8203" height="120.442" filterUnits="userSpaceOnUse" color-interpolation-filters="sRGB">
<feFlood flood-opacity="0" result="BackgroundImageFix"/>
<feBlend mode="normal" in="SourceGraphic" in2="BackgroundImageFix" result="shape"/>
<feGaussianBlur stdDeviation="2.29567" result="effect1_foregroundBlur"/>
</filter>
<filter id="filter1_f" x="480.513" y="250.899" width="96.8514" height="93.8318" filterUnits="userSpaceOnUse" color-interpolation-filters="sRGB">
<feFlood flood-opacity="0" result="BackgroundImageFix"/>
<feBlend mode="normal" in="SourceGraphic" in2="BackgroundImageFix" result="shape"/>
<feGaussianBlur stdDeviation="2.29567" result="effect1_foregroundBlur"/>
</filter>
<filter id="filter2_f" x="167.42" y="191.14" width="91.6041" height="88.5845" filterUnits="userSpaceOnUse" color-interpolation-filters="sRGB">
<feFlood flood-opacity="0" result="BackgroundImageFix"/>
<feBlend mode="normal" in="SourceGraphic" in2="BackgroundImageFix" result="shape"/>
<feGaussianBlur stdDeviation="0.983859" result="effect1_foregroundBlur"/>
</filter>
<filter id="filter3_f" x="245.199" y="523.229" width="211.048" height="214.577" filterUnits="userSpaceOnUse" color-interpolation-filters="sRGB">
<feFlood flood-opacity="0" result="BackgroundImageFix"/>
<feBlend mode="normal" in="SourceGraphic" in2="BackgroundImageFix" result="shape"/>
<feGaussianBlur stdDeviation="1.96772" result="effect1_foregroundBlur"/>
</filter>
<clipPath id="clip0">
<rect width="867.775" height="695" fill="white" transform="translate(1052.22 380)"/>
</clipPath>
<clipPath id="clip1">
<rect width="609.736" height="653" fill="white" transform="translate(2.86707 103)"/>
</clipPath>
</defs>
</svg>
