<svg width="197" height="324" viewBox="0 0 197 324" fill="none" xmlns="http://www.w3.org/2000/svg">
<path d="M154.541 41.6696C154.462 13.7773 135.902 1.44079 112.269 12.254V16.7446C133.775 7.13518 150.594 18.4661 150.666 43.9067L152.281 42.9998L154.726 48.6968L154.541 41.6696Z" fill="#216260"/>
<path d="M142.876 37.3779C145.263 35.9909 148.57 36.1863 152.22 38.2941C159.475 42.4823 165.333 52.6295 165.309 60.9654C165.298 65.106 163.836 68.0197 161.479 69.3894L157.24 71.8529C159.597 70.4832 161.058 67.5705 161.07 63.4298C161.093 55.0938 155.235 44.9458 147.981 40.7575C144.33 38.6507 141.024 38.4543 138.636 39.8413L142.876 37.3779Z" fill="#216260"/>
<path d="M133.18 36.0709C136.352 34.228 140.746 34.4876 145.596 37.2883C155.235 42.8532 163.019 56.3358 162.987 67.4118C162.972 72.9136 161.03 76.7849 157.898 78.605L148.349 84.1543C151.48 82.3342 153.422 78.4642 153.437 72.9625C153.469 61.8864 145.685 48.4025 136.046 42.8375C131.195 40.0382 126.802 39.7773 123.63 41.6202L133.18 36.0709Z" fill="#1F1111"/>
<path d="M136.046 42.8554C126.407 37.2905 118.572 41.7556 118.541 52.8316C118.509 63.9065 126.293 77.3893 135.932 82.9542C145.571 88.5193 153.406 84.0541 153.437 72.9792C153.469 61.9032 145.685 48.4203 136.046 42.8554Z" fill="#1F1111"/>
<path d="M135.614 49.0771C128.966 45.2391 123.562 48.3186 123.541 55.9575C123.519 63.5956 128.888 72.8944 135.535 76.7325C142.183 80.5705 147.586 77.491 147.608 69.8528C147.63 62.214 142.261 52.9151 135.614 49.0771Z" fill="#216260"/>
<path d="M137.259 74.7144C130.612 70.8764 125.243 61.5776 125.265 53.9394C125.271 51.7893 125.704 50.0005 126.47 48.6254C124.665 50.0035 123.568 52.5104 123.558 55.9402C123.536 63.5783 128.905 72.8771 135.553 76.7152C140.329 79.473 144.464 78.6591 146.421 75.1488C144.205 76.8399 140.922 76.8292 137.259 74.7144Z" fill="#384E85"/>
<path d="M123.681 7.89197C131.44 12.3984 136.255 21.9745 136.291 35.5484L136.473 42.5841L150.899 50.9652L150.717 43.9475C150.681 30.3556 145.866 20.7794 138.107 16.273L123.681 7.89197Z" fill="#8AB0B1"/>
<path d="M148.367 86.1485C147.608 103.45 145.19 118.445 145.19 118.445C144.009 134.724 148.378 146.807 143.789 151.241C143.529 164.505 139.4 181.993 139.4 181.993L94.7611 184.553L67.22 133.986C71.4387 120.018 67.551 119.783 66.5196 114.74C66.3132 113.732 66.167 113.189 66.167 113.189C69.3706 128.383 58.7179 62.7206 71.7723 41.3587C83.0036 22.9804 147.698 24.1523 151.025 46.2004C154.164 63.3987 153.919 71.3927 148.367 86.1485Z" fill="#D9DDF6"/>
<path d="M150.719 43.9762C150.688 33.094 147.592 24.7935 142.377 19.6092C135.4 12.6734 130.266 6.16341 104.348 3.6434C13.5907 -5.18084 51.4779 106.545 51.4779 106.545L71.7968 107.901C69.8952 56.8332 86.9351 52.3158 95.307 53.1258C101.526 53.7278 107.783 54.1262 113.965 53.2175C127.329 51.2525 134.06 46.4313 140.639 39.7379C141.917 38.4373 144.089 38.7828 144.986 40.3701C153.015 54.574 148.385 86.1482 148.385 86.1482C159.025 67.8541 150.719 43.9762 150.719 43.9762Z" fill="#8AB0B1"/>
<path d="M57.0737 92.2319C60.2461 90.389 64.6396 74.1427 69.4898 76.9433C79.1287 82.5083 86.9128 95.9908 86.8814 107.067C86.8657 112.569 84.9243 116.44 81.7925 118.26L72.2426 123.809C75.3744 121.989 77.3158 118.119 77.3314 112.618C77.3628 101.542 69.5787 88.0575 59.9399 82.4926C55.0896 79.6933 50.6962 79.4324 47.5239 81.2752L57.0737 92.2319Z" fill="#1A4B4A"/>
<path d="M59.9399 82.5278C50.3012 76.9628 42.4662 81.4279 42.4348 92.504C42.4034 103.579 50.1875 117.062 59.8263 122.627C69.4651 128.192 77.3001 123.726 77.3315 112.652C77.3628 101.576 69.5788 88.0928 59.9399 82.5278Z" fill="#216260"/>
<path d="M49.0226 87.3868C51.4102 85.9998 54.7168 86.1952 58.3671 88.303C65.6214 92.4912 71.4799 102.638 71.4562 110.974C71.4444 115.115 69.9833 118.029 67.6262 119.398L62.2023 122.55C64.5592 121.18 66.0204 118.268 66.0322 114.127C66.0559 105.791 60.1974 95.6429 52.9432 91.4547C49.2928 89.3479 45.9862 89.1515 43.5988 90.5385L49.0226 87.3868Z" fill="#216260"/>
<path d="M52.9083 91.455C45.6541 87.2668 39.7574 90.6273 39.7338 98.9632C39.7101 107.298 45.5685 117.446 52.8227 121.634C60.077 125.822 65.9737 122.462 65.9973 114.126C66.021 105.791 60.1625 95.6433 52.9083 91.455Z" fill="#E5E5E5"/>
<path d="M46.1263 87.6086L46.3081 103.506L60.734 111.887L60.5522 96.0079C60.4614 66.2072 81.4854 29.7924 107.416 14.8193C120.462 7.29647 132.31 6.60597 140.869 11.5666L126.424 3.18562C117.884 -1.79322 106.036 -1.10272 92.9895 6.4383C67.0594 21.4113 46.0355 57.8261 46.1263 87.6086Z" fill="#E5E5E5"/>
<path d="M107.367 14.786C81.4369 29.7564 60.4137 66.1698 60.4984 95.965L60.5217 96.8447H64.4437L64.3619 93.7346C64.2844 66.3922 83.5842 32.9636 107.379 19.2254C126.135 8.39655 142.125 13.0362 148.113 28.8562H152.903C147.527 8.77177 129.149 2.20967 107.367 14.786Z" fill="#216260"/>
<path d="M145.19 118.392C145.19 118.392 147.108 175.282 124.713 180.6C97.5189 187.057 82.0584 149.382 59.0783 144.835C59.0783 144.835 47.2171 151.82 34.1628 161.51C13.5488 176.81 1.29157 200.905 1.29157 226.577L0 296.337C0 303.09 3.84408 309.203 9.93268 312.123C28.3431 320.953 67.7794 339.489 145.043 296.337C145.043 296.337 145.12 296.29 145.266 296.199C174.33 278.052 190.929 262.891 194.946 221.418C194.946 221.418 208.287 86.5668 145.19 118.392Z" fill="#1F1111"/>
<path d="M150.498 127.111C149.759 127.353 149.036 127.555 148.271 127.86C147.04 142.268 139.975 160.852 122.292 170.907C122.292 170.907 102.029 182.661 77.6135 157.233C71.8379 157.142 65.6737 146.127 59.0606 144.818C59.0606 144.818 118.652 265.638 145.026 296.319C145.026 296.319 147.077 294.88 150.188 292.505L149.844 291.841C149.844 291.842 172.788 229.764 150.498 127.111Z" fill="#216260"/>
<path d="M143.355 159.076L131.453 190.535L154.908 260.97L150.245 292.568L145.025 296.327L127.347 273.011L122.266 195.755L104.518 181L143.355 159.076Z" fill="#1F1111"/>
<path d="M145.173 118.41C145.173 118.41 146.314 146.51 122.292 170.942C122.292 170.942 139.709 183.494 146.314 183.494C146.314 183.494 158.542 155.744 156.675 142.308C154.808 128.872 147.469 130.213 145.173 118.41Z" fill="#8AB0B1"/>
<path d="M59.0954 144.818C59.0954 144.818 62.872 141.556 67.2375 133.916C67.2375 133.916 90.0571 172.782 122.327 170.907C122.327 170.907 118.246 190.453 108.002 199.722C108.002 199.722 73.1136 181.399 59.0954 144.818Z" fill="#8AB0B1"/>
<path d="M61.0265 211.733H82.6408L76.9115 232.455L145.026 296.337L59.0607 144.836C59.0607 144.836 41.9234 181.655 61.0265 211.733Z" fill="#113534"/>
<path d="M174.415 162.403C174.415 162.403 168.034 144.043 145.173 118.392C145.173 118.392 157.288 225.789 149.844 291.859C149.844 291.859 176.315 214.558 176.315 190.383L162.696 180.316L174.415 162.403Z" fill="#113534"/>
<path d="M123.71 111.783C105.356 123.844 75.0206 115.395 68.022 108.367C67.0025 110.769 68.2998 112.237 67.22 114.625C94.3404 132.552 126.375 118.408 125.247 117.319C124.587 114.97 124.358 114.135 123.71 111.783Z" fill="#216260"/>
<path d="M142.103 109.767C141.022 106.519 137.513 104.762 134.266 105.844L120.433 110.451C117.186 111.533 115.431 115.042 116.512 118.291C117.594 121.539 121.103 123.295 124.349 122.214L138.182 117.606C141.429 116.525 143.185 113.015 142.103 109.767Z" fill="#113736"/>
</svg>
