<svg width="115" height="66" viewBox="0 0 115 66" fill="none" xmlns="http://www.w3.org/2000/svg">
<path d="M110.451 2.86568H91.7957C91.0343 2.86568 90.2871 3.07212 89.6336 3.46303C88.9802 3.85394 88.445 4.4147 88.0849 5.08563C88.0849 5.08563 80.6444 18.7884 78.2545 23.4038C71.8249 35.8197 67.6613 31.9219 67.6613 26.1596V6.29102C67.6613 4.63074 67.0018 3.03846 65.8278 1.86447C64.6538 0.690474 63.0615 0.0309312 61.4012 0.0309312H47.3749C45.4647 -0.111092 43.55 0.23757 41.8125 1.0438C40.075 1.85003 38.5725 3.08706 37.4476 4.6374C37.4476 4.6374 44.57 3.48581 44.57 13.0826C44.57 15.4623 44.6925 22.3082 44.8042 28.0501C44.8253 28.8962 44.5862 29.7284 44.1193 30.4344C43.6524 31.1403 42.9801 31.686 42.1932 31.9977C41.4063 32.3095 40.5427 32.3723 39.7189 32.1776C38.8952 31.9829 38.1511 31.5402 37.587 30.9092C31.8458 22.9242 27.0901 14.275 23.4234 5.14936C23.1085 4.46671 22.6044 3.88871 21.9709 3.48393C21.3374 3.07916 20.6011 2.86459 19.8493 2.86568C15.8035 2.86568 7.70761 2.86568 2.8997 2.86568C2.43348 2.86251 1.97345 2.97257 1.55915 3.18641C1.14484 3.40025 0.788645 3.71147 0.521155 4.09334C0.253665 4.47521 0.0828811 4.91632 0.0234752 5.37875C-0.0359306 5.84119 0.0178176 6.31113 0.180102 6.74821C5.32682 20.8656 27.4972 65.2302 52.8025 65.2302H63.4535C64.5695 65.2302 65.6398 64.7868 66.4289 63.9977C67.218 63.2086 67.6613 62.1383 67.6613 61.0223V54.5909C67.6613 53.7841 67.8974 52.9949 68.3404 52.3206C68.7834 51.6463 69.414 51.1164 70.1545 50.796C70.895 50.4757 71.713 50.379 72.5078 50.5179C73.3026 50.6568 74.0393 51.0251 74.6273 51.5776L87.3758 63.5555C88.5207 64.6313 90.0326 65.2301 91.6036 65.2302H108.345C116.419 65.2302 116.419 59.6274 112.017 55.2919C108.919 52.2407 97.739 40.4569 97.739 40.4569C96.7816 39.4651 96.2106 38.1636 96.1291 36.7875C96.0476 35.4114 96.4611 34.0516 97.2947 32.9537C100.908 28.1984 106.819 20.4142 109.325 17.0795C112.752 12.5216 118.953 2.86568 110.451 2.86568Z" fill="white"/>
</svg>
